<?xml version="1.0" encoding="utf-8"?>
<!-- Generator: Adobe Illustrator 23.0.2, SVG Export Plug-In . SVG Version: 6.00 Build 0)  -->
<svg version="1.1" id="Layer_1" xmlns="http://www.w3.org/2000/svg" xmlns:xlink="http://www.w3.org/1999/xlink" x="0px" y="0px"
	 viewBox="0 0 281.3 57.5" style="enable-background:new 0 0 281.3 57.5;" xml:space="preserve">
<style type="text/css">
	.st0{fill:#F4B47A;}
	.st1{fill:#F79126;}
</style>
<title>ist-color-horizontal</title>
<g>
	<g id="Layer_1-2">
		<polygon class="st0" points="32.8,4 28.8,0 0,28.8 28.8,57.5 32.8,53.5 8,28.8 		"/>
		<polyline class="st1" points="38.2,9.4 42.2,5.4 36.8,0 32.8,4 32.8,4 8,28.8 32.8,53.5 32.8,53.5 36.8,57.5 42.2,52.1 38.2,48.1 
			38.2,48.1 18.8,28.8 38.2,9.4 		"/>
		<polygon class="st0" points="76.3,28.8 47.6,0 42.2,5.4 65.5,28.8 42.2,52.1 47.6,57.5 		"/>
		
			<rect x="24.5" y="15.1" transform="matrix(0.7071 -0.7071 0.7071 0.7071 -9.149 35.4104)" class="st0" width="27.3" height="27.3"/>
		<path d="M90.4,12.2c0-0.8,0.2-1.5,0.8-2.1c0.6-0.6,1.4-0.9,2.2-0.9c0.8-0.1,1.7,0.2,2.3,0.9c0.5,0.6,0.8,1.3,0.8,2.1
			c0,0.8-0.3,1.5-0.8,2.1c-0.6,0.6-1.4,0.9-2.3,0.8c-0.8,0.1-1.6-0.2-2.2-0.8C90.7,13.7,90.4,13,90.4,12.2z M96,49.9h-5.1V20.1H96
			V49.9z"/>
		<path d="M108.9,20.1l0.2,3.8c2.1-2.8,5.4-4.4,8.9-4.3c6.3,0,9.5,3.6,9.5,10.7v19.7h-5.1V30.2c0.1-1.7-0.4-3.4-1.5-4.8
			c-1.2-1.1-2.8-1.7-4.5-1.5c-1.6,0-3.1,0.4-4.3,1.3c-1.3,0.9-2.3,2.1-2.9,3.5v21.2h-5.1V20.1H108.9z"/>
		<path d="M134,34.8c0-4.6,1.1-8.2,3.2-11c3.8-4.8,10.8-5.6,15.5-1.8c0.4,0.4,0.9,0.7,1.3,1.2V7.6h5.1v42.3h-4.7l-0.2-3.2
			c-2.1,2.5-5.2,3.9-8.5,3.7c-3.3,0.1-6.5-1.5-8.4-4.2c-2.2-2.8-3.3-6.5-3.3-11.1V34.8z M139.1,35.4c0,3.4,0.7,6,2.1,7.9
			c1.3,1.9,3.5,3,5.8,2.9c3,0.1,5.8-1.6,7.1-4.3V28.1c-1.3-2.7-4-4.3-7-4.2c-2.3-0.1-4.5,1-5.8,2.9
			C139.8,28.7,139.1,31.6,139.1,35.4z"/>
		<path d="M167.1,12.2c0-0.8,0.2-1.5,0.8-2.1c0.6-0.6,1.4-0.9,2.2-0.9c0.8-0.1,1.7,0.2,2.3,0.9c0.5,0.6,0.8,1.3,0.8,2.1
			c0,0.8-0.3,1.5-0.8,2.1c-0.6,0.6-1.4,0.9-2.3,0.8c-0.8,0.1-1.6-0.2-2.2-0.8C167.3,13.7,167.1,13,167.1,12.2z M172.6,49.9h-5.1
			V20.1h5.1V49.9z"/>
		<path d="M187.7,12.9v7.2h5.6v3.9h-5.6v18.5c-0.1,1,0.2,1.9,0.7,2.7c0.7,0.7,1.6,1,2.5,0.9c0.8,0,1.6-0.1,2.4-0.3V50
			c-1.3,0.4-2.6,0.5-3.9,0.5c-1.9,0.1-3.8-0.6-5.1-2.1c-1.3-1.7-1.9-3.8-1.7-5.9V24.1h-5.4v-3.9h5.4v-7.2H187.7z"/>
		<path d="M199.2,12.2c0-0.8,0.2-1.5,0.8-2.1c0.6-0.6,1.4-0.9,2.2-0.9c0.8-0.1,1.7,0.3,2.3,0.9c0.5,0.6,0.8,1.3,0.8,2.1
			c0,0.8-0.3,1.5-0.8,2.1c-0.6,0.6-1.4,0.9-2.3,0.8c-0.8,0-1.6-0.3-2.2-0.8C199.5,13.7,199.2,13,199.2,12.2z M204.7,49.9h-5.1V20.1
			h5.1V49.9z"/>
		<path d="M211.5,34.8c0-2.7,0.5-5.4,1.7-7.9c2.1-4.6,6.8-7.4,11.8-7.3c3.7-0.1,7.4,1.4,9.9,4.2c2.5,2.8,3.8,6.5,3.8,11.2v0.4
			c0.1,2.7-0.5,5.4-1.6,7.8c-1,2.2-2.7,4.1-4.8,5.4c-2.1,1.3-4.6,2-7.1,1.9c-3.7,0.1-7.3-1.4-9.8-4.2c-2.5-2.8-3.8-6.5-3.8-11.2
			L211.5,34.8z M216.6,35.4c-0.1,2.8,0.7,5.7,2.3,8c2.6,3.4,7.5,4,10.9,1.4c0.5-0.4,1-0.9,1.4-1.4c1.5-2,2.3-4.9,2.3-8.5
			c0.1-2.9-0.7-5.7-2.3-8c-1.4-2-3.8-3.1-6.2-3c-2.4-0.1-4.7,1.1-6.1,3C217.4,28.8,216.6,31.6,216.6,35.4L216.6,35.4z"/>
		<path d="M249.9,20.1l0.2,3.8c2.1-2.8,5.4-4.4,8.9-4.3c6.3,0,9.5,3.6,9.5,10.7v19.7h-5.1V30.2c0.1-1.7-0.4-3.4-1.5-4.8
			c-1.2-1.1-2.8-1.7-4.5-1.5c-1.6,0-3.1,0.4-4.4,1.3c-1.3,0.9-2.3,2.1-2.9,3.5v21.2H245V20.1H249.9z"/>
		<path d="M271.5,10.5h-1.2V14h-0.7v-3.5h-1.2V9.8h3L271.5,10.5z M275.4,11l-1.1,3h-0.4l-1.1-3v3h-0.7V9.8h0.9l1.1,3.2l1.1-3.1h0.9
			V14h-0.7V11z"/>
	</g>
</g>
</svg>
